<svg xmlns="http://www.w3.org/2000/svg" width="128" height="128" viewBox="0 0 128 128">
  <defs>
    <linearGradient id="pad" x1="0" y1="0" x2="0" y2="1">
      <stop offset="0" stop-color="#ffffff"/>
      <stop offset="1" stop-color="#f3f1ea"/>
    </linearGradient>
    <linearGradient id="top" x1="0" y1="0" x2="0" y2="1">
      <stop offset="0" stop-color="#ffd24a"/>
      <stop offset="1" stop-color="#f2b300"/>
    </linearGradient>
    <filter id="s" x="-20%" y="-20%" width="140%" height="140%">
      <feDropShadow dx="0" dy="2" stdDeviation="2.5" flood-color="#5a4300" flood-opacity="0.3"/>
    </filter>
  </defs>
  <g filter="url(#s)">
    <rect x="12" y="10" width="104" height="108" rx="24" fill="url(#pad)"/>
  </g>
  <path d="M12 34 V34 a24 24 0 0 1 24 -24 H92 a24 24 0 0 1 24 24 V38 H12 Z" fill="url(#top)"/>
  <g stroke="#d9d4c5" stroke-width="2.4">
    <line x1="28" y1="60" x2="100" y2="60"/>
    <line x1="28" y1="78" x2="100" y2="78"/>
    <line x1="28" y1="96" x2="100" y2="96"/>
  </g>
  <circle cx="34" cy="53" r="5.5" fill="none" stroke="#e6a200" stroke-width="2.6"/>
  <circle cx="34" cy="71" r="6" fill="#e6a200"/>
  <path d="M31 71 l2.4 2.6 l4.6 -5" fill="none" stroke="#fff" stroke-width="2" stroke-linecap="round" stroke-linejoin="round"/>
  <rect x="46" y="50" width="44" height="6" rx="3" fill="#48484a"/>
  <rect x="46" y="68" width="34" height="6" rx="3" fill="#8e8e93"/>
  <rect x="28" y="86" width="56" height="6" rx="3" fill="#48484a"/>
</svg>
